<svg width="24" height="25" viewBox="0 0 24 25" fill="none" xmlns="http://www.w3.org/2000/svg">
<path d="M17.9998 1.5H5.99976C4.67416 1.50159 3.40331 2.02888 2.46598 2.96622C1.52864 3.90356 1.00134 5.17441 0.999756 6.5V14.5C1.00121 15.6522 1.39985 16.7687 2.12847 17.6613C2.8571 18.5538 3.87117 19.1679 4.99976 19.4V22.5C4.99973 22.6811 5.04885 22.8587 5.14188 23.014C5.23491 23.1693 5.36836 23.2965 5.52799 23.3819C5.68762 23.4673 5.86744 23.5078 6.04827 23.499C6.2291 23.4902 6.40416 23.4325 6.55476 23.332L12.2998 19.5H17.9998C19.3254 19.4984 20.5962 18.9711 21.5335 18.0338C22.4709 17.0965 22.9982 15.8256 22.9998 14.5V6.5C22.9982 5.17441 22.4709 3.90356 21.5335 2.96622C20.5962 2.02888 19.3254 1.50159 17.9998 1.5ZM15.9998 13.5H7.99976C7.73454 13.5 7.48019 13.3947 7.29265 13.2071C7.10511 13.0196 6.99976 12.7652 6.99976 12.5C6.99976 12.2348 7.10511 11.9804 7.29265 11.7929C7.48019 11.6054 7.73454 11.5 7.99976 11.5H15.9998C16.265 11.5 16.5193 11.6054 16.7069 11.7929C16.8944 11.9804 16.9998 12.2348 16.9998 12.5C16.9998 12.7652 16.8944 13.0196 16.7069 13.2071C16.5193 13.3947 16.265 13.5 15.9998 13.5ZM17.9998 9.5H5.99976C5.73454 9.5 5.48019 9.39465 5.29265 9.20711C5.10511 9.01957 4.99976 8.76522 4.99976 8.5C4.99976 8.23479 5.10511 7.98043 5.29265 7.7929C5.48019 7.60536 5.73454 7.5 5.99976 7.5H17.9998C18.265 7.5 18.5193 7.60536 18.7069 7.7929C18.8944 7.98043 18.9998 8.23479 18.9998 8.5C18.9998 8.76522 18.8944 9.01957 18.7069 9.20711C18.5193 9.39465 18.265 9.5 17.9998 9.5Z" fill="#207BBE"/>
</svg>
